<?xml version="1.0" encoding="utf-8"?>
<!-- Generator: Adobe Illustrator 19.0.0, SVG Export Plug-In . SVG Version: 6.00 Build 0)  -->
<svg version="1.1" id="Camada_1" xmlns="http://www.w3.org/2000/svg" xmlns:xlink="http://www.w3.org/1999/xlink" x="0px" y="0px"
	 viewBox="0 0 236 71.8" style="enable-background:new 0 0 236 71.8;" xml:space="preserve">
<style type="text/css">
	.st0{display:none;fill:none;stroke:#000000;stroke-miterlimit:10;}
	.st1{fill:none;stroke:#000000;stroke-miterlimit:10;}
</style>
<path id="XMLID_132_" class="st0" d="M187.5,34.9l-3.6-2.4l0.3-16.9c-1.9,2.6-6.2,2.5-6.2,2.5l-33.7,0.3l-1.6-4.6l1.9-2.4l-0.6-0.4
	c0,0-4.9,2.1-14.8-0.9h-15.8H107H91.3c-9.9,3-14.8,0.9-14.8,0.9l-0.6,0.6l1.9,2.3l-1.2,4.1l-6.3-0.3V53h20.6c6.9,1,9.1,6,9.1,6h10
	h0.5H121c0,0,5.7-7,9.4-6h11.9h0h35.8c3.1-1,5.8,2.4,5.8,2.4l-0.2-17.8L187.5,34.9z"/>
<path id="XMLID_131_" class="st1" d="M200.8,36.5l-3.5-2.6V19c0,0,0.3-4,3.8-7h-23.7H158h-6.3l-14.6-3.2L121.2,12H56H41.5H13
	c3.5,3,3.3,7,3.3,7v14.9l-3.5,2.6l3.5,2.8v14.4c0,4.5-3.3,8.3-3.3,8.3h28.5H51h112h14.3H201c0,0-3.8-3.8-3.8-8.3V39.3L200.8,36.5z"
	/>
</svg>
