<?xml version="1.0" encoding="utf-8"?>
<!-- Generator: Adobe Illustrator 19.0.0, SVG Export Plug-In . SVG Version: 6.00 Build 0)  -->
<svg version="1.1" id="Camada_1" xmlns="http://www.w3.org/2000/svg" xmlns:xlink="http://www.w3.org/1999/xlink" x="0px" y="0px"
	 viewBox="0 0 236 71.8" style="enable-background:new 0 0 236 71.8;" xml:space="preserve">
<style type="text/css">
	.st0{display:none;fill:none;stroke:#000000;stroke-miterlimit:10;}
	.st1{fill:none;stroke:#000000;stroke-miterlimit:10;}
</style>
<path id="XMLID_132_" class="st0" d="M187.5,34.9l-3.6-2.4l0.3-16.9c-1.9,2.6-6.2,2.5-6.2,2.5l-33.7,0.3l-1.6-4.6l1.9-2.4l-0.6-0.4
	c0,0-4.9,2.1-14.8-0.9h-15.8H107H91.3c-9.9,3-14.8,0.9-14.8,0.9l-0.6,0.6l1.9,2.3l-1.2,4.1l-6.3-0.3V53h20.6c6.9,1,9.1,6,9.1,6h10
	h0.5H121c0,0,5.7-7,9.4-6h11.9h0h35.8c3.1-1,5.8,2.4,5.8,2.4l-0.2-17.8L187.5,34.9z"/>
<path id="XMLID_133_" class="st0" d="M74.8,32.8c0-6.1-4.4-11.1-10-11.8L63,17l-1.5,4C56.1,22,52,26.8,52,32.8
	c0,5.9,4.1,10.8,9.6,11.7l1.4,4.1l1.9-4C70.5,43.8,74.8,38.8,74.8,32.8z"/>
<path id="Escudo_Defesa_2_" class="st1" d="M55.3,26.7V17l2.1-3H52l-1.8-2.5l2-4.5l-2.5,1.1c0,0-2.2-0.1-3.3-2.1H41h-6h-7.5h-3.8
	c-1.2,2-3.3,2-3.3,2l-2.5-1l2,4.6L18,14h-5.3l1.6,3v9.7l-3.5,2.7l3.5,2.7v19.5l4.4,3.6l0.2,3l8.4,4V63h1.2l6.5,3h0.2l6.5-3H43l0-0.9
	l8.1-3.8l0.1-3.3l4.1-3.5V32l3.5-2.7L55.3,26.7z"/>
<path id="XMLID_131_" class="st0" d="M198,25.1l0-9.8c0-0.3,0-2.4,0-2.4s0.3-6,3-7h-25h-0.5H150h-30H95.1H94H69c2.7,1,3,7,3,7
	s0.1,2.2,0,2.5l-0.2,38.1c0,0,0,10.4-2.8,12.4h18h31.5l18.5-3.4l14.5,3.4H183h18c-2.8-2-2.8-12.5-2.8-12.5l-0.1-24.8l2.9-1.7
	L198,25.1z"/>
</svg>
