<?xml version="1.0" encoding="utf-8"?>
<svg version="1.1" id="Camada_1" xmlns="http://www.w3.org/2000/svg" xmlns:xlink="http://www.w3.org/1999/xlink" x="0px" y="0px"
	 viewBox="-199.7 -86.6 544.6 214" style="enable-background:new -199.7 -86.6 544.6 214;" xml:space="preserve" aria-hidden="true">
<style type="text/css">
	.st0{fill:#00A1C6;stroke:#000000;stroke-width:1.5;stroke-miterlimit:10;}
</style>
<path id="XMLID_159_" class="st0" d="M340.1,52V9V1.6V0.8v-68.3l-3.6-2.8l1.7-6.6l-8.6,1.9l-78.1-0.2l-1.9,2.4l-2-2.2L137-75.3
	l-2.4-5.5c0,0-1.8,2.8-2.7,5.4h-21.6l-1.9-1.5l5-6.9l-42-2l-42,1.8l4.5,6.9l-3.5,1.5h-71.1l-1.9-3.6l-1.6,3.6h-71.6l-1.6-3.3l-1.8,4
	l-66.8-0.3l-6.3-1.5l1,6.8l-3.4,2.3l0.6,68.6v0.6v8.6l-0.2,42.1l-4.1,3.1l4.2,3l-0.2,55.1l3.5,2.3l-1.5,7l6.1-1.3l35.6-0.5l1.5-4.2
	l1.4,4l11.4-0.3h63.3h8.9h295h7.2h39.3l2.9,5.3l2.5-5.3h0.9l46,0.1l8.3,2.6l-1-7.7l3.1-2V58.6l3.8-3.2L340.1,52z"/>
</svg>
