<?xml version="1.0" encoding="utf-8"?>
<!-- Generator: Adobe Illustrator 19.0.0, SVG Export Plug-In . SVG Version: 6.00 Build 0)  -->
<svg version="1.1" id="Camada_2" xmlns="http://www.w3.org/2000/svg" xmlns:xlink="http://www.w3.org/1999/xlink" x="0px" y="0px"
	 viewBox="0 0 554.4 81.8" style="enable-background:new 0 0 554.4 81.8;" xml:space="preserve">
<style type="text/css">
	.st0{fill:#943831;}
</style>
<path id="XMLID_7_" class="st0" d="M549,65.3L517.3,56c0,0-12.3-5-14.8-8s-2.3-7.3-2.3-7.3s1.3-3,1.5-5s-1.8-4.3-1.8-4.3l5.3-9.3
	c-2,2.8-9,4-9,4s-21.5-0.5-49.1-1.1L438.3,15l-7.6,9.8c-13.6-0.2-27.9-0.5-41.4-0.6L383,12.9l-3.4,5.9h-15c0,0-9.6,2.9-17.6,5.4
	c-9.4,0.1-15.9,0.3-17.1,0.8c-6.5,2.8-9.5,0-9.5,0l-2.3-3.9l-2.3,3.6h-1.9v-3.3c-6,1.5-16.8-15.2-16.8-15.2L278.8,8l-3-5.8L272,6.2
	l-3-0.4h-3.5l-4.8,1.7l-7.3-1.1l-3.3-4.2L247,6.8h-23.5l-3-3.3l-3.3,4.7L212,6l-11,1.2c0,0-10.8,3.4-13.8,1.6s-10.5-1.5-17-1.6
	s-8-2.3-8-2.3L150,6.8h-20.8l-18.8-1l-5.8-2.1l-5.8,1.8C77.7,6,60.1,3.7,60.1,3.7c4.5,3.3,3.8,7,3.8,7l1.1,6c-7.1,2.7-18,7.8-18,7.8
	s6.5,0.5,6,6l1,6l13.9-4l1.7,9c0,0,9.9,2.9,21.5-1.5c2.5-0.9,32.4-2,61.8-2.2l5,6.1l-12.9,11.7c-25.7,4.4-49.3,8-50.4,8.4l-2,0.1
	l-25.1-7.6L52.7,58L8.4,54.5L7,65l-2,1.7l-4.1,0l8.1,7h83l0.7,0l6.3,1.9l7.3,4.4c0,0,14.9-9.7,17.9-4.7s17.1,3.8,17.1,3.8
	c3-7,11.2-5.7,11.2-5.7L266,75.8h97.3l82.3-1.7l2.5,4.3l2.2-4.4l0.8-0.1h98.3l6-3.6L549,65.3z"/>
</svg>
