<?xml version="1.0" encoding="utf-8"?>
<!-- Generator: Adobe Illustrator 19.0.0, SVG Export Plug-In . SVG Version: 6.00 Build 0)  -->
<svg version="1.1" id="Camada_3" xmlns="http://www.w3.org/2000/svg" xmlns:xlink="http://www.w3.org/1999/xlink" x="0px" y="0px"
	 viewBox="-451.1 248.9 53.1 65.1" style="enable-background:new -451.1 248.9 53.1 65.1;" xml:space="preserve">
<style type="text/css">
	.st0{fill:#211915;}
</style>
<path id="XMLID_3_" class="st0" d="M-422.9,289.6l-0.5,0.3l-1.2-1.9l-1.3,2.1l-0.2,0c-3.3,0.5-5.9,1.5-7.7,3.1
	c-1.8,1.6-2.9,3.7-3.2,6.5l-0.5-0.1l0.5-0.1c0.4,2.9,1.5,4.8,3.2,6.2c1.8,1.4,4.4,2.3,7.7,2.8l0.2,0l1.3,2l1.3-2l0.2,0
	c3.4-0.5,5.9-1.4,7.7-2.8c1.8-1.4,2.9-3.4,3.2-6.2l0.5,0.1l-0.5,0.1c-0.4-2.9-1.5-5-3.2-6.5c-1.8-1.6-4.3-2.6-7.7-3.1l-0.2,0
	l-0.1-0.2L-422.9,289.6l0.1-0.5c3.5,0.5,6.2,1.6,8.2,3.3c2,1.7,3.2,4.1,3.6,7.2l0,0.1l0,0.1c-0.4,3.1-1.6,5.4-3.6,7
	c-2,1.6-4.8,2.5-8.2,3l-0.1-0.5l0.5,0.3l-2.1,3.2l-2.1-3.2l0.5-0.3l-0.1,0.5c-3.4-0.5-6.2-1.4-8.2-3c-2-1.6-3.2-3.9-3.6-7l0-0.1
	l0-0.1c0.4-3.1,1.6-5.5,3.6-7.2c2-1.7,4.8-2.8,8.2-3.3l0.1,0.5l-0.5-0.3l2.1-3.3l2.1,3.3L-422.9,289.6l0.1-0.5L-422.9,289.6"/>
<path id="XMLID_1_" class="st0" d="M-414.7,250.3c0,0,0.7,1.8,3.1,2.3l2.4-0.4l-1.5,5.1c0,0,0.3,1.8,1.5,2.7h7.5l-1.8,2.9v13.8
	l3.7,2.5l-3.7,2.5v15.5l0.9,4.4l-5.5-2.3l-3.3,0.5c-0.8,5.9-4.6,8.5-11.4,9.5l-1.6,2.5l-1.6-2.5c-6.8-1-10.6-3.6-11.4-9.5l-3.3-0.5
	l-5.5,2.3l0.9-4.4v-15.5l-3.7-2.5l3.7-2.5v-13.8l-1.8-2.9h7.5c1.2-0.9,1.5-2.7,1.5-2.7l-1.5-5.1l2.4,0.4c2.4-0.4,3.1-2.3,3.1-2.3
	H-414.7 M-414,249.2h-21.1l-0.3,0.7c0,0-0.5,1.2-2.1,1.6l-3.9-0.7l0.5,1.7l1.4,4.9c-0.1,0.4-0.3,1.1-0.8,1.6h-9l1,1.7l1.7,2.7V276
	l-3.2,2.2l-1.3,0.9l1.3,0.9l3.2,2.2V297l-0.9,4.3l-0.4,2l7.1-3l2.3,0.3c1.3,6.8,6.8,8.7,11.7,9.5l2.3,3.6l0.9-1.4l1.4-2.1
	c8.8-1.5,11-5.7,11.7-9.5l2.2-0.3l7.1,3l-0.4-2l-0.9-4.3v-14.8l4.5-3.1l-1.3-0.9l-3.2-2.2v-12.9l1.7-2.7l1-1.7h-9
	c-0.4-0.4-0.7-1.1-0.8-1.6l1.4-4.9l0.5-1.7l-3.9,0.7c-1.6-0.4-2.1-1.6-2.1-1.6L-414,249.2z"/>
<path class="st0" d="M-403.1,281.9l4.1-2.8l-4.1-2.8V263l2.2-3.6h-8.2c-0.4-0.3-0.7-0.8-0.8-1.2c-0.2-0.4-0.2-0.7-0.3-0.9l1.7-5.8
	l-3.1,0.6c-1-0.2-1.6-0.7-2-1.1c-0.4-0.4-0.6-0.8-0.6-0.8h0l-0.1-0.3h-20.3l-0.1,0.3l0,0l0,0l-0.1,0.2c-0.1,0.1-0.2,0.4-0.4,0.6
	c-0.4,0.4-1.1,0.9-2.1,1.1l-3.1-0.6l1.7,5.8l0,0.2c0,0.2-0.1,0.4-0.2,0.7c-0.2,0.5-0.5,1-0.9,1.3h-8.2l2.2,3.6v13.4l-4.1,2.8
	l4.1,2.8v15.2l-1.1,5.3l6.3-2.6l3.4,0.5v-1l-3.5-0.5l-4.7,2l0.7-3.5v-15.8l-3.3-2.2l3.3-2.2v-14.2l-1.4-2.2h6.7l0.1-0.1
	c0.7-0.5,1.1-1.3,1.4-1.9c0.2-0.6,0.3-1.1,0.3-1.1l0-0.1l-1.3-4.4l1.6,0.3l0.1,0c1.3-0.2,2.2-0.9,2.7-1.5c0.3-0.3,0.5-0.6,0.6-0.8
	h19c0.1,0.2,0.3,0.5,0.6,0.8c0.5,0.6,1.4,1.2,2.7,1.5l0.1,0l1.6-0.3l-1.3,4.4l0,0.1c0,0,0.1,0.5,0.3,1.1c0.2,0.6,0.6,1.4,1.4,1.9
	l0.1,0.1h6.7l-1.4,2.2v14.2l3.3,2.2l-3.1,2.1l-0.2,0.2v15.8l0.7,3.5l-4.7-2l-3.6,0.5v1l3.4-0.5l6.3,2.6l-1.1-5.3V281.9z"/>
</svg>
