<?xml version="1.0" encoding="utf-8"?>
<!-- Generator: Adobe Illustrator 19.0.0, SVG Export Plug-In . SVG Version: 6.00 Build 0)  -->
<svg version="1.1" id="Camada_1" xmlns="http://www.w3.org/2000/svg" xmlns:xlink="http://www.w3.org/1999/xlink" x="0px" y="0px"
	 viewBox="-268.3 266.9 26.7 26.2" style="enable-background:new -268.3 266.9 26.7 26.2;" xml:space="preserve">
<style type="text/css">
	.st0{display:none;fill:none;stroke:#000000;stroke-miterlimit:10;}
	.st1{fill:none;stroke:#000000;stroke-miterlimit:10;}
</style>
<path id="Status_2_" class="st0" d="M-234.5,285l4-2.3l-4-2.8l-0.1-12.8l1.9-2.8h-7c0,0-1.8-1.9-1.8-2.5c0-0.6,1.8-5.5,1.8-5.5
	l-2.9,1c0,0-2.1-1-2.7-2h-2.3h-6.9h-1h-5.8h-3.1c-0.6,1-2.7,2-2.7,2l-2.9-1.1c0,0,1.8,4.9,1.8,5.6c0,0.7-1.8,2.4-1.8,2.4h-7l1.9,2.8
	l-0.1,12.9l-4,2.8l4,2.3l0.1,14.9l-1.3,4.8l6-2.6l14.6,1.3v-0.2h1v0.3l15-1.3l6.3,2.6l-1.3-4.8L-234.5,285z"/>
<path id="XMLID_131_" class="st1" d="M-242.4,280.4c0-5-4.3-9.7-11.1-10.1l-1.4-2.1l-1.4,2.2c-6.4,0.7-11.1,5-11.1,9.7
	c0,4.9,4.5,8.8,11,9.3l1.7,2.7l1.7-2.7C-246.7,288.9-242.4,285.2-242.4,280.4z"/>
</svg>
