<?xml version="1.0" encoding="utf-8"?>
<svg version="1.1" id="Camada_1" xmlns="http://www.w3.org/2000/svg" xmlns:xlink="http://www.w3.org/1999/xlink" x="0px" y="0px"
	 viewBox="0 0 502.3 416.1" style="enable-background:new 0 0 502.3 416.1;" xml:space="preserve">
<style type="text/css">
	.st0{fill:#00A1C6;stroke:#000000;stroke-width:2;stroke-miterlimit:10;}
</style>
<polygon id="XMLID_121_" class="st0" points="501.1,374.2 501.1,52 501.3,20.6 498,18.3 498.9,11.5 493,13.3 456.9,13.7 299.2,13.7 
	297.2,11.9 303.2,3.5 252.8,1 202.5,3.1 207.9,11.1 203.7,12.7 191.1,12.7 191.1,13.7 45.3,13.7 9.2,13.3 3.4,11.6 4.3,18.4 1,20.6 
	1.1,52 1.1,374.2 1,405.6 4.2,407.9 3.3,414.7 9.2,413 45.3,412.7 456.9,412.7 493,413 498.9,414.6 498,407.8 501.3,405.6 "/>
</svg>
