<?xml version="1.0" encoding="utf-8"?>
<!-- Generator: Adobe Illustrator 19.0.0, SVG Export Plug-In . SVG Version: 6.00 Build 0)  -->
<svg version="1.1" id="Camada_1" xmlns="http://www.w3.org/2000/svg" xmlns:xlink="http://www.w3.org/1999/xlink" x="0px" y="0px"
	 viewBox="-310 260.9 24.8 34.2" style="enable-background:new -310 260.9 24.8 34.2;" xml:space="preserve">
<style type="text/css">
	.st0{display:none;fill:none;stroke:#000000;stroke-miterlimit:10;}
	.st1{fill:none;stroke:#000000;stroke-miterlimit:10;}
</style>
<path id="XMLID_132_" class="st0" d="M-173.5,280.1l-3.6-2.4l0.3-16.9c-1.9,2.6-6.2,2.5-6.2,2.5l-33.7,0.3l-1.6-4.6l1.9-2.4
	l-0.6-0.4c0,0-4.9,2.1-14.8-0.9h-15.8h-6.4h-15.7c-9.9,3-14.8,0.9-14.8,0.9l-0.6,0.6l1.9,2.3l-1.2,4.1l-6.3-0.3v35.3h20.6
	c6.9,1,9.1,6,9.1,6h10h0.5h10.5c0,0,5.7-7,9.4-6h11.9l0,0h35.8c3.1-1,5.8,2.4,5.8,2.4l-0.2-17.8L-173.5,280.1z"/>
<path id="XMLID_133_" class="st1" d="M-286.2,278c0-6.1-4.4-11.1-10-11.8l-1.8-4l-1.5,4c-5.4,1-9.5,5.8-9.5,11.8
	c0,5.9,4.1,10.8,9.6,11.7l1.4,4.1l1.9-4C-290.5,289-286.2,284-286.2,278z"/>
<path id="Escudo_Defesa_2_" class="st0" d="M-305.7,271.9v-9.7l2.1-3h-5.4l-1.8-2.5l2-4.5l-2.5,1.1c0,0-2.2-0.1-3.3-2.1h-5.4h-6
	h-7.5h-3.8c-1.2,2-3.3,2-3.3,2l-2.5-1l2,4.6l-1.9,2.4h-5.3l1.6,3v9.7l-3.5,2.7l3.5,2.7v19.5l4.4,3.6l0.2,3l8.4,4v0.8h1.2l6.5,3h0.2
	l6.5-3h1.3v-0.9l8.1-3.8l0.1-3.3l4.1-3.5v-19.5l3.5-2.7L-305.7,271.9z"/>
<path id="XMLID_131_" class="st0" d="M-163,270.3v-9.8c0-0.3,0-2.4,0-2.4s0.3-6,3-7h-25h-0.5H-211h-30h-24.9h-1.1h-25c2.7,1,3,7,3,7
	s0.1,2.2,0,2.5l-0.2,38.1c0,0,0,10.4-2.8,12.4h18h31.5l18.5-3.4l14.5,3.4h31.5h18c-2.8-2-2.8-12.5-2.8-12.5l-0.1-24.8l2.9-1.7
	L-163,270.3z"/>
</svg>
