<?xml version="1.0" encoding="utf-8"?>
<!-- Generator: Adobe Illustrator 19.0.0, SVG Export Plug-In . SVG Version: 6.00 Build 0)  -->
<svg version="1.1" id="Camada_1" xmlns="http://www.w3.org/2000/svg" xmlns:xlink="http://www.w3.org/1999/xlink" x="0px" y="0px"
	 viewBox="0 0 325 156.5" style="enable-background:new 0 0 325 156.5;" xml:space="preserve">
<style type="text/css">
	.st0{fill:#943831;stroke:#8E3830;stroke-width:2;stroke-miterlimit:10;}
</style>
<path class="st0" d="M317.3,140.7l4.9,9.5c0,0-8.6-0.4-23.4-0.4c-14.9,0-62.9,1.4-62.9,1.4l-2.3,2.5l-2.5-2.5l-67.7,2.8h0.6
	l-67.7-2.8l-2.5,2.5l-2.3-2.5c0,0-48.1-1.4-62.9-1.4c-14.9,0-23.4,0.4-23.4,0.4l4.9-9.5V18L5.3,8.5c0,0,8.6,0.4,23.4,0.4
	c14.9,0,62.9-1.4,62.9-1.4l2.3-2.5l2.5,2.5L164,4.6h-0.6L231,7.5l2.5-2.5l2.3,2.5c0,0,48.1,1.4,62.9,1.4c14.9,0,23.4-0.4,23.4-0.4
	l-4.9,9.5"/>
</svg>
