<?xml version="1.0" encoding="utf-8"?>
<svg version="1.1" id="Camada_1" xmlns="http://www.w3.org/2000/svg" xmlns:xlink="http://www.w3.org/1999/xlink" x="0px" y="0px"
	 viewBox="-363 259.5 232.2 42.5" style="enable-background:new -363 259.5 232.2 42.5;" xml:space="preserve" aria-hidden="true" class="edge_character">
<style type="text/css">
	.st0{fill:#00A1C6;stroke:#000000;stroke-miterlimit:10;}
</style>
<path id="Personagem" class="st0" d="M-132.2,281.2c-1.2-0.8-2.7-2.8-2.7-2.8v-9l-2.4,2.5h-1.2l1.3-6.5l-6.2,1.5h-9h-3.8h-9
	l-2.1-4.3l-2.1,4.3h-8.5v0.1h-18.4l-0.7,1.3l-0.7-1.3h-28.5l-2.6-5.1l-2.5,5.1h-23.3l-1.1,2.2l-1.1-2.2h-21.6l-1.7-3.9l-1.8,3.8
	h-7.5l-2.6-5.9l-2.9,5.9h-21v-0.1l-21.7,0.1l-2-3.5l-1.8,3.5h-9l-6.2-1.5l1.3,6.5h-1.1l-2.5-2.5v9c0,0-1.5,2-2.7,2.8s2.8,2,3,3
	s0.2,8.7,0.2,8.7s2.7-2.3,3.2-2.3s-0.8,6.5-0.8,6.5l4.6-1l35.5-0.2h29.9l2.4,5.1l2.5-5.1h43l2.5,5.1l2.3-5.1h37.8l1.4-3l1.5,3h14.8
	l35.6,0.2l4.7,1c0,0-1.3-6.5-0.8-6.5s3.2,2.3,3.2,2.3s0-7.7,0.2-8.7C-135,283.2-131.1,282-132.2,281.2z"/>
</svg>
