<?xml version="1.0" encoding="utf-8"?>
<!-- Generator: Adobe Illustrator 19.0.0, SVG Export Plug-In . SVG Version: 6.00 Build 0)  -->
<svg version="1.1" id="Camada_1" xmlns="http://www.w3.org/2000/svg" xmlns:xlink="http://www.w3.org/1999/xlink" x="0px" y="0px"
	 viewBox="-336.8 252.9 54.5 54.5" style="enable-background:new -336.8 252.9 54.5 54.5;" xml:space="preserve">
<style type="text/css">
	.st0{fill:none;stroke:#000000;stroke-miterlimit:10;}
	.st1{display:none;fill:none;stroke:#000000;stroke-miterlimit:10;}
</style>
<polygon id="XMLID_133_" class="st0" points="-330.6,259.2 -313.3,257 -309.1,254.2 -305.3,256.7 -287.7,259.1 -287.7,277.2 
	-283.4,280.2 -287.7,283.2 -287.7,301.2 -305.2,303.5 -309.3,306.3 -313.2,303.6 -330.7,301.5 -330.7,283.2 -335.5,280.3 
	-330.8,277 "/>
<path id="XMLID_132_" class="st1" d="M-173.5,280.1l-3.6-2.4l0.3-16.9c-1.9,2.6-6.2,2.5-6.2,2.5l-33.7,0.3l-1.6-4.6l1.9-2.4
	l-0.6-0.4c0,0-4.9,2.1-14.8-0.9h-15.8h-6.4h-15.7c-9.9,3-14.8,0.9-14.8,0.9l-0.6,0.6l1.9,2.3l-1.2,4.1l-6.3-0.3v35.3h20.6
	c6.9,1,9.1,6,9.1,6h10h0.5h10.5c0,0,5.7-7,9.4-6h11.9l0,0h35.8c3.1-1,5.8,2.4,5.8,2.4l-0.2-17.8L-173.5,280.1z"/>
</svg>
