<?xml version="1.0" encoding="utf-8"?>
<!-- Generator: Adobe Illustrator 19.0.0, SVG Export Plug-In . SVG Version: 6.00 Build 0)  -->
<svg version="1.1" id="Camada_3" xmlns="http://www.w3.org/2000/svg" xmlns:xlink="http://www.w3.org/1999/xlink" x="0px" y="0px"
	 viewBox="-479.8 250.1 171.2 55.9" style="enable-background:new -479.8 250.1 171.2 55.9;" xml:space="preserve">
<style type="text/css">
	.st0{fill:#211915;}
</style>
<g>
	<polyline id="XMLID_4_" class="st0" points="-423.9,278 -424.2,278.5 -429.1,275.1 -429.1,256.7 -447,254.7 -451,252 -454.9,254.7 
		-472.8,256.7 -472.8,275.2 -477,278 -472.8,280.9 -472.8,299.4 -454.9,301.4 -451,304.1 -447,301.4 -429.1,299.4 -429.1,281 
		-424.2,277.6 -423.9,278 -424.2,278.5 -423.9,278 -423.6,278.5 -428.1,281.5 -428.1,300.3 -446.6,302.4 -451,305.4 -455.3,302.4 
		-473.8,300.3 -473.8,281.4 -478.8,278 -473.8,274.7 -473.8,255.8 -455.3,253.7 -451,250.7 -446.6,253.7 -428.1,255.8 -428.1,274.6 
		-423,278 -423.6,278.5 -423.9,278 	"/>
	<path id="XMLID_1_" class="st0" d="M-451,251.4l4.1,2.8l18.2,2.1v4.1h3.6l1.1-4.5l-2.1-3.3c0.6,0.6,2,0.8,3.8,0.8
		c4.9,0,12.6-1.7,12.6-1.7h38.7c0,0,7.7,1.7,12.6,1.7c1.8,0,3.3-0.2,3.8-0.8l-2.1,3.3l1.4,4.8c0,0,31.6,0,35.1,0
		c3.5,0,6.1-2.4,6.1-2.4v17.2l3.5,2.4l-3.5,2.4v18c0,0-2.6-2.4-6.1-2.4h-50.2c-3.6,0-8.8,6.3-8.8,6.3h-21.8
		c-1.7-4.4-9.6-6.2-9.6-6.2h-18.1v3.7l-18.2,2.1l-4.1,2.8l-4.1-2.8l-18.2-2.1v-18.7l-4.6-3.1l4.6-3.1v-18.7l18.2-2.1L-451,251.4
		 M-451,250.1l-0.6,0.4l-3.9,2.7l-18.9,2.2v19.1l-4.1,2.8l-1.3,0.9l1.3,0.9l4.1,2.8v19.1l18.9,2.2l4.5,3.1l4.5-3.1l18.9-2.2v-3.6
		h16.9c2.1,0.5,7.5,2.5,8.7,5.6l0.3,0.7h23l0.3-0.4c1.9-2.3,5.7-5.9,8-5.9h50.2c3.1,0,5.4,2.1,5.4,2.1l1.7,1.6V281l4.4-3l-4.4-3v-19
		l-1.7,1.6c0,0-2.4,2.1-5.4,2.1c-3.2,0-29.4,0-34.3,0l-1.1-3.6l1.9-2.9l-1.6-1.3c-0.1,0.1-0.6,0.5-3.1,0.5c-4.8,0-12.3-1.6-12.4-1.7
		l-0.1,0c-13,0-25.9,0-38.9,0l-0.1,0c-0.1,0-7.6,1.7-12.4,1.7c-2.5,0-3-0.5-3.1-0.5l-1.6,1.3l1.9,3l-0.8,3.3h-1.7v-4l-18.9-2.2
		l-3.9-2.7L-451,250.1z"/>
	<path class="st0" d="M-313.5,275.4v-18.1l-0.9,0.8l0,0l-0.1,0.1c-0.1,0.1-0.2,0.1-0.3,0.3c-0.3,0.2-0.7,0.5-1.2,0.8
		c-1,0.6-2.5,1.1-4.1,1.1c-2.6,0-21,0-30.1,0c-2.2,0-3.9,0-4.6,0l-1.3-4.2l2-3.1l-0.8-0.6c-0.2,0.2-0.6,0.4-1.2,0.5
		c-0.6,0.1-1.4,0.2-2.3,0.2c-3.6,0-8.9-0.9-11.2-1.4c-0.8-0.2-1.3-0.3-1.3-0.3l-0.1,0h-38.8l-0.1,0c0,0-0.5,0.1-1.3,0.3
		c-0.8,0.2-1.9,0.4-3.2,0.6c-2.5,0.4-5.7,0.8-8.1,0.8c-0.9,0-1.7-0.1-2.3-0.2c-0.6-0.1-1-0.3-1.2-0.5l-0.8,0.6l2,3.1l-0.9,3.9h-3.4
		v1h4.2l1.2-5.1l-1.3-2.1c0,0,0,0,0,0c0.7,0.1,1.6,0.2,2.5,0.2c4.8,0,12.1-1.6,12.7-1.7h38.6c0.6,0.1,7.8,1.7,12.7,1.7
		c0.9,0,1.8-0.1,2.5-0.2c0,0,0,0,0,0l-1.3,2.1l1.6,5.4h0.4c0,0,31.6,0,35.1,0c2.5,0,4.5-1.1,5.6-1.8v16.5l3.1,2.1l-3.1,2.1v17.2
		c-1.1-0.7-3.1-1.8-5.6-1.8h-50.2c-1.1,0-2.1,0.4-3.2,1.1c-1,0.6-2,1.4-2.9,2.2c-1.4,1.3-2.6,2.6-2.9,3h-21.3
		c-1.1-2.2-3.4-3.7-5.5-4.7c-2.2-1-4.2-1.5-4.2-1.5l-0.1,0h-18.4v1h18.3c0,0,0.1,0,0.3,0.1c0.2,0.1,0.5,0.1,0.9,0.3
		c0.7,0.2,1.8,0.6,2.8,1.1c2.1,1,4.4,2.5,5.2,4.5l0.1,0.3h22.4l0.2-0.2c0,0,0-0.1,0.1-0.1c0.1-0.1,0.2-0.2,0.4-0.4
		c0.3-0.4,0.8-0.8,1.3-1.4c1.1-1.1,2.5-2.4,4-3.2c0.9-0.6,1.9-0.9,2.6-0.9h50.2c3,0,5.5,2,5.8,2.2l0,0l0.9,0.8v-18.9l3.3-2.3
		l0.6-0.4L-313.5,275.4z"/>
</g>
</svg>
