<?xml version="1.0" encoding="utf-8"?>
<!-- Generator: Adobe Illustrator 19.0.0, SVG Export Plug-In . SVG Version: 6.00 Build 0)  -->
<svg version="1.1" id="Camada_1" xmlns="http://www.w3.org/2000/svg" xmlns:xlink="http://www.w3.org/1999/xlink" x="0px" y="0px"
	 viewBox="0 0 162.9 20.6" style="enable-background:new 0 0 162.9 20.6;" xml:space="preserve">
<style type="text/css">
	.st0{fill:#211915;}
</style>
<path id="XMLID_646_" class="st0" d="M159,0.5l0.4-0.3l1,1.3l0,0.1L160,1.7l0.2-0.5c0.1,0,0.2,0.1,0.3,0.3L160,1.7l0.2-0.5L160,1.7
	V1.2l0.2,0L160,1.7V1.2v0.2l0-0.2l0,0v0.2l0-0.2c0,0,0.1,0,0.3-0.1c0.2-0.1,0.5-0.2,0.7-0.3c0.2-0.1,0.3-0.2,0.3-0.2l0.8-0.5v6.5
	c0,0.4,0,2,0.7,3.4l0.1,0.2l-0.1,0.2c-0.7,1.4-0.7,3-0.7,3.4v6.5l-0.8-0.5c0,0-0.1,0-0.2-0.1c-0.2-0.1-0.4-0.2-0.7-0.4
	c-0.1-0.1-0.2-0.1-0.3-0.1l-0.1,0l0,0l0-0.2v0.2l0,0l0-0.2v0.2v-0.4l0.2,0.4l-0.2,0v-0.4l0.2,0.4l-0.2-0.5l0.5,0.2
	c-0.1,0.1-0.2,0.2-0.3,0.3l-0.2-0.5l0.5,0.2l0,0.1l-1.2,1.5H3.7l-1.2-1.5l0-0.1l0.5-0.2l-0.2,0.5c-0.1,0-0.2-0.1-0.3-0.3l0.5-0.2
	l-0.2,0.5l0.2-0.4v0.4l-0.2,0l0.2-0.4v0.4v-0.2l0,0.2l0,0v-0.2l0,0.2c0,0-0.1,0-0.3,0.1c-0.2,0.1-0.5,0.2-0.7,0.3
	C1.8,19.9,1.7,20,1.7,20l-0.8,0.5V14c0-0.4,0-2-0.7-3.4L0,10.3L0.1,10c0.7-1.4,0.7-3,0.7-3.4V0.1l0.8,0.5c0,0,0.1,0,0.2,0.1
	C2,0.8,2.3,1,2.5,1.1c0.1,0.1,0.2,0.1,0.3,0.1l0.1,0l0,0l0,0.2V1.2l0,0l0,0.2V1.2v0.4L2.7,1.3l0.2,0v0.4L2.7,1.3l0.2,0.5L2.4,1.5
	c0.1-0.1,0.2-0.2,0.3-0.3l0.2,0.5L2.4,1.5l0-0.1L3.7,0h155.6l0.2,0.2L159,0.5v0.5H4.2l-0.8,1L2.9,1.8L3.4,2C3.4,2.1,3.2,2.2,3.1,2.3
	c-0.1,0-0.2,0-0.2,0c-0.1,0-0.2,0-0.3-0.1C2.3,2.2,1.9,2,1.6,1.8C1.3,1.7,1.1,1.5,1.1,1.5l0.3-0.5h0.5v5.6c0,0.4,0,2.2-0.8,3.9
	l-0.5-0.2L1.1,10c0.9,1.7,0.8,3.5,0.8,3.9v5.6H1.4l-0.3-0.5c0,0,0.3-0.2,0.7-0.4c0.2-0.1,0.4-0.2,0.5-0.3l0.3-0.1
	c0.1,0,0.2-0.1,0.3-0.1c0.1,0,0.1,0,0.2,0c0.1,0,0.2,0.2,0.3,0.3l-0.5,0.2l0.4-0.3l0.8,1h154.5l0.8-1l0.4,0.3l-0.5-0.2
	c0.1-0.1,0.2-0.3,0.3-0.3c0.1,0,0.2,0,0.2,0c0.1,0,0.2,0,0.3,0.1c0.3,0.1,0.6,0.3,0.9,0.4c0.3,0.2,0.5,0.3,0.5,0.3l-0.3,0.5h-0.5V14
	c0-0.4,0-2.2,0.8-3.9l0.5,0.2l-0.5,0.2c-0.9-1.7-0.8-3.5-0.8-3.9V1.1h0.5l0.3,0.5c0,0-0.3,0.2-0.7,0.4c-0.2,0.1-0.4,0.2-0.5,0.3
	l-0.3,0.1c-0.1,0-0.2,0.1-0.3,0.1c-0.1,0-0.1,0-0.2,0c-0.1,0-0.2-0.1-0.3-0.3l0.5-0.2l-0.4,0.3l-1-1.2L159,0.5v0.5V0.5"/>
</svg>
