<?xml version="1.0" encoding="utf-8"?>
<!-- Generator: Adobe Illustrator 19.0.0, SVG Export Plug-In . SVG Version: 6.00 Build 0)  -->
<svg version="1.1" id="Camada_1" xmlns="http://www.w3.org/2000/svg" xmlns:xlink="http://www.w3.org/1999/xlink" x="0px" y="0px"
	 viewBox="-361 257.5 138.2 20.8" style="enable-background:new -361 257.5 138.2 20.8;" xml:space="preserve">
<style type="text/css">
	.st0{fill:none;stroke:#000000;stroke-miterlimit:10;}
</style>
<path id="Campo_Geral_1" class="st0" d="M-223.8,267.7c-0.6-0.3-1.2-2.6-1.2-2.6v-6.5c0,0-1.2,1-1.5,0.9s-0.9-1-0.9-1h-3.8h-5.5
	h-110h-4h-5.5c0,0-0.8,0.9-1.1,1c-0.3,0.1-1.7-0.9-1.7-0.9v6.5c0,0-0.3,2.2-1,2.6c0,0,1.2,2.3,0.9,4.2l-0.1,4.9c0,0,1.3-1,1.6-0.8
	c0.3,0.2,1.1,1.5,1.1,1.5h5.8h4h110h6.5h3.2c0,0,0.8-1.3,1-1.5s1.5,0.9,1.5,0.9l-0.2-5C-224.9,270-223.8,267.7-223.8,267.7z"/>
</svg>
