<?xml version="1.0" encoding="utf-8"?>
<!-- Generator: Adobe Illustrator 19.0.0, SVG Export Plug-In . SVG Version: 6.00 Build 0)  -->
<svg version="1.1" id="Camada_1" xmlns="http://www.w3.org/2000/svg" xmlns:xlink="http://www.w3.org/1999/xlink" x="0px" y="0px"
	 viewBox="-353.9 67.4 204.6 437" style="enable-background:new -353.9 67.4 204.6 437;" xml:space="preserve">
<style type="text/css">
	.st0{display:none;fill:none;stroke:#000000;stroke-miterlimit:10;}
</style>
<path id="XMLID_132_" class="st0" d="M-185.6,285.7l-3.6-2.4l0.3-16.9c-1.9,2.6-6.2,2.5-6.2,2.5l-33.7,0.3l-1.6-4.6l1.9-2.4
	l-0.6-0.4c0,0-4.9,2.1-14.8-0.9h-15.8h-6.5h-15.6c-9.9,3-14.8,0.9-14.8,0.9l-0.6,0.6l1.9,2.3l-1.2,4.1l-6.3-0.3v35.3h20.6
	c6.9,1,9.1,6,9.1,6h10h0.5h10.5c0,0,5.7-7,9.4-6h11.9l0,0h35.8c3.1-1,5.8,2.4,5.8,2.4l-0.2-17.8L-185.6,285.7z"/>
<g id="XMLID_159_">
	<path d="M-250.7,504.4l-4.3-4.1h-24.4l-2.6-2.3l-3.1,2.3h-20.4l-0.2-0.2c-6.2-6.7-12.9-5.7-12.9-5.6l-0.1,0l-0.1,0l-6.9-0.3
		l-28.3,0.2l1.7-0.9c3.2-1.8,3-4.9,3-5l0-17V85.7c0.6-4.4-1.9-12.6-1.9-12.7l-0.2-0.6h67c4.8-0.2,6.3-4.5,6.3-4.6l0.1-0.3l0.4,0
		h127.5l-0.7,0.8c-2.4,2.7-3.3,4.9-2.8,6.4c0.6,1.7,2.9,2.2,2.9,2.2l0.4,0.1l0,0.4v411.1l-0.3,0.1c-1.1,0.4-1.7,1-1.8,1.6
		c-0.2,1.2,1.3,2.7,1.9,3.2l1.1,0.9l-21.2-0.2l-4.1,6.3l-3.5-6.2h-6.6c-6.2-0.9-8.8,4.5-8.9,4.7l-0.1,0.3l-0.3,0h-52.8L-250.7,504.4
		z M-279,499.3h24.4l3.8,3.6l3.5-4.6h53c0.7-1.2,3.7-5.9,9.7-5l7.1,0l3,5.2l3.5-5.3l19,0.2c-0.7-0.8-1.5-2-1.3-3.2
		c0.1-1,0.8-1.7,2.1-2.3V77.8c-0.8-0.3-2.6-1-3.3-2.8c-0.6-1.8,0.2-4,2.3-6.6h-124.9c-0.5,1.2-2.4,4.8-7.1,5l-65.6,0
		c0.6,2.1,2.3,8.5,1.8,12.4l0,59.6v343c0,0.1,0.2,2.9-2.2,5l24.8-0.2l6.9,0.3c0.7-0.1,7.3-0.9,13.7,5.8h19.6l3.6-2.7L-279,499.3z"/>
</g>
</svg>
