<?xml version="1.0" encoding="utf-8"?>
<!-- Generator: Adobe Illustrator 19.0.0, SVG Export Plug-In . SVG Version: 6.00 Build 0)  -->
<svg version="1.1" id="Camada_1" xmlns="http://www.w3.org/2000/svg" xmlns:xlink="http://www.w3.org/1999/xlink" x="0px" y="0px"
	 viewBox="0 0 525.5 64" style="enable-background:new 0 0 525.5 64;" xml:space="preserve">
<style type="text/css">
	.st0{fill:#943831;stroke:#8E3830;stroke-width:2;stroke-miterlimit:10;}
</style>
<path id="XMLID_80_" class="st0" d="M384.6,45.6l-11.9-6.1c-2.4-1.6-3.1-7-3.7-8.3c-0.8-1.9-3.3-5.1-3.3-5.1c1.4-2.6,3-8.3,3-8.3
	s-4.9,1.7-15,1.7H225.1l-1.7-3.5l-1.7,3.5h-6.6c-7.4,0-21.4-4.7-21.4-4.7l-31.4,3.1c-6.5-5.8-10.8-14.3-10.8-14.3l-3.6,2.6h-9.2
	l-1.8-2.2l-1.8,2.2c-2.2,0-86.6,0.1-88.8,0.1l-3.8-1.7l-4,1.7C22,6.6,14.2,6.3,12.6,6.3c-4,0-9.1-1.8-9.1-1.8L6,26h54
	c0,0,4.9,2.5,4.9,5.7l-2.4,3.7l4.4,3.7v6.2c0,1.3-2.3,7-2.3,7l6.7-2.1h3.2l1.4,2.8l1.4-2.8h69.4l11.2,5.1l140,0.6l94.8,1.5h30
	l99.5-2.6l-58.7-9.1L384.6,45.6"/>
</svg>
