<?xml version="1.0" encoding="utf-8"?>
<!-- Generator: Adobe Illustrator 19.0.0, SVG Export Plug-In . SVG Version: 6.00 Build 0)  -->
<svg version="1.1" id="Camada_1" xmlns="http://www.w3.org/2000/svg" xmlns:xlink="http://www.w3.org/1999/xlink" x="0px" y="0px"
	 viewBox="0 0 211 449" style="enable-background:new 0 0 211 449;" xml:space="preserve">
<style type="text/css">
	.st0{fill:#943831;}
</style>
<path class="st0" d="M203.4,434.3c-0.4-2.4-0.8-4.4-1.2-4.8l0.7,3.6c-0.9-2.6-0.9-0.1-1,2.3l-1.9-11.2V200.6
	c0.1,0.2,0.1,0.2,0.2-0.3l-0.1-3.4c0.4-3.1,0.6,6.4,0.8,2.1c0.3,4.6,0.8,9.7,0.6,16.2l-0.6,1.2c0.2-0.1,0.4-4.2,0.2-6
	c0.3,2.7-0.9,9.9,0,12.9l0.4-4.5c0.3,4.6,1,10.3,0.8,16c0.6-2.6-0.1-1.3,0.7-5.4c-0.9,3.5,0-14.6-0.9-9c0.9-4.2,0.4-7.2,1.1-12.7
	c-0.2,0.2-0.4,1.9-0.3-2.9c-0.1-0.2-0.1-0.7-0.2-1.1c0-0.1,0-0.2,0-0.3c0,0.1,0,0.2,0,0.3c0-0.2,0-0.2,0,0.1
	c-0.1,1.1-0.2,2.1-0.3,2.4c-0.5-2.4-0.5-10-0.7-12.6c0.1-2.9,0.2,1.2,0.5-0.4l-0.4-3.9c0.5-0.4,0.8-7.6,1-0.9l0-6
	c0.3-3.6,0.4-8.5,0.2-11.5c0.1-2.9-0.5-7.2-0.2-4.7l-0.3-9.5l0.1-0.1c0.1-9.4-0.8-19.3,0.1-30c-0.1-3.1-0.3-6.4-0.1-11.7l0.4-1
	c-0.1-4,0.4-12.1,0-13.9c1.1-4.4,0.2-19.6,0.4-26.7l-0.5-0.3c0-4.9-0.1-9.6-0.3-15.7l-0.5,0.4c-0.4-5.2,0.3-13.5,0.3-21.8
	c0.2,0.6,0.1,2.7,0,4.2c0.1-1.1,0.2-2.2,0.3-3.3c0-0.6,0-1.1,0.1-1.7c0-0.7,0-1.4,0-2.2l-0.6-1.6l-0.4-1.2l-0.9-2.3l-0.9-2.3
	l-0.5-1.2c-0.2-0.4-0.3-0.9-0.4-0.9l-0.1-0.2l0-0.2c0-1.5-0.4-2.9-1.2-4.2c-0.8-1.3-2-2.2-3.2-2.7c-1.2-0.6-2.4-0.8-3.5-1
	c-0.6-0.1-1.1-0.1-1.7-0.2c-0.5,0-1-0.1-1.4-0.1c-2.2,0.1-3.8,0-5.3-0.2c0.2,0,0.4,0,0.6,0c-0.2,0-0.6,0-0.9-0.1
	c-1-0.1-2-0.3-3.1-0.4c0.9,0.2,1.8,0.3,2.6,0.4c-1.7-0.1-4.3-0.2-6.9-0.3l-1.1-0.6c-0.2,0-0.4,0-0.6,0c-2.5-0.4-2,0.1-0.7,0.6
	c-1.3,0-2.5,0-3.4,0.1c-2-1-6.7-0.3-9.4-1.3c-0.6,0.1-2.4,0-4.5-0.1c-0.5,0-1.1,0-1.6-0.1l-0.9,0l-0.2,0l-0.2-0.2
	c-0.1-0.1-0.2-0.3-0.3-0.4c-0.2-0.3-0.4-0.6-0.6-0.8l-1.8-2.4l-1.1,2.4c-0.3,0.7-0.6,1.4-0.7,1.9c-0.2,0-0.2,0.1-0.3,0.1
	c-0.1-0.1-0.6-0.2,0.3-0.2l0,0l0,0c-0.5-0.1-1-0.1-1.4-0.2c-0.7-0.1-1.3-0.1-2-0.2c-1.4-0.1-2.7-0.2-4-0.1l-1.2-0.7l-6.3,0.4
	c-3.8-0.7-5.3-1-1.5-1.2c-9.1,0.1-7.4-0.3-15.2-0.1l0.4-0.4c-2.8-0.2-7.2,0-8.9-0.4c-2.8-0.4-9.4-0.5-17.2-0.6
	C86.5,9.7,82.3,9.7,78,9.6c-2.1,0-4.2-0.1-6.3-0.1c-1,0-2.1-0.1-3.1-0.1c-0.4,0-0.9,0-1.3,0c-0.3,0-0.5,0-0.8,0
	c-0.1-0.2-0.3-0.4-0.4-0.5L66,8.5L65.6,8L64,6l-1.7,2.2c-0.2,0.3-0.4,0.6-0.6,0.8c0.4,0,0.5,0,0.3,0.4c0,0.2-0.3,0.1-0.6,0.1
	c-0.1,0-0.3,0-0.4,0c-0.2,0-0.3,0-0.6-0.1C58,9.3,55.3,9.1,55,9.6c-0.9-0.3-3.1-0.4-0.6-0.7c-8.1,0.3-12.2-0.4-17.8,0.5
	c-0.9-0.3,1.7-0.4,0.9-0.6C36.9,8.8,35,9,34.1,8.9c-0.8-0.2,1.2-0.3,2.5-0.4c-8.3,0.1-9.1,1-9.7,1.8c-0.3,0-0.6-0.1-1-0.1
	c-0.4,0-0.8,0-1.2-0.1c-0.4,0-0.8,0-1.1,0c-0.2,0-0.4,0-0.5,0l-0.3,0l-0.2,0.1c-0.3,0.7-0.6,1.4-1,2l-0.2,0.3l-0.2,0.2
	c-0.1,0.2-0.2,0.3-0.4,0.4c-0.5,0.5-1.1,1.1-2,1.6c-0.7,0.1-1.6,0.2-1.7,0.1c-0.1,0,0-0.1,0.4-0.3c0.4-0.2,1.1-0.3,2-0.8
	c-0.6,0.3-2.3,0.9-4.4,1c-0.5,0-1.1,0-1.7,0l-0.4,0l-0.6,0c-0.5,0-0.9-0.1-1.4-0.1c-1.9-0.2-3.9-0.6-5.6-1l-0.1,0.2
	c0,0.1,0,0.2,0.1,0.3c0.1,0.2,0.1,0.5,0.2,0.7C5.8,15.2,5.9,15.6,6,16c0.2,0.8,0.4,1.6,0.6,2.2c0.4,1.3,0.6,2,0.8,2.1
	c0,0.3,0.1,0.7,0.2,1.3c0.1,0.3,0.1,0.6,0.2,0.9C7.9,22.7,7.9,23,8,23.2c0,0.4,0,0.9,0.1,1.2c0,0.4,0,0.8,0.1,0.9
	c0,6.5-0.1,7.1,0,13.4L8.2,37c0.8,2.5,0.2,5.3,0.3,10.4l-0.1-0.1c-0.5,11.8,0.3,5.1-0.3,16.7l0.5-0.6c1.1,1.1-0.6,10.3-0.1,17.1
	L8.8,78c0.4,3.7-1.4,10.3-1.5,14c-0.1,0.8-0.2-1.3-0.2-2.4c-0.6,9.7,0.7,1.3,0.8,8.5C7.6,99.5,7,96.4,7,101.3
	c-0.3,2.4,1.2,14.1,0.6,20.7c0.3-1.5,0.5-2.9,0.7,0.4c0.1,5.1-1,13.9-0.1,18.5c-0.1,0.7-0.1,0.9-0.2,0.9c0.2,3.9,0.4,12.8,0.9,15.1
	c-1.7,3.6,1,24.4-0.6,24.3l0.1,12.1l-0.2-0.3c-0.1,7.7,0.3,10.5,0.7,13.2c-0.1,1.8-0.3,0.5-0.3,0.3c-0.3,11.3-0.2,12.4,0.7,21.9
	l-0.5,1c0.3,2.6-0.7,16.3-0.1,27.4c-0.1-0.1-0.2-0.3-0.2-1.2c0.7,12.5-1.3,29.8,0.6,34.4l0.5,8.2c0.1-10.6,0.8,1.6,1.1-2.8
	c0.1,4.2-0.5,10.8-0.6,5.7l0.1-0.8c-1-1.9-0.3,13.2-0.9,12.9c0.2,20.9-0.3,41.3-0.2,60.9l0.7-2.3l0,6.8c-0.2,1.8-0.6,2.4-0.6-2.5
	c-0.4,2.6,0.4,8.2,0.6,8.3c-0.3,9.6-0.9-3.7-0.9-0.8l0.1,4L9,387c0.3,3.2,0.7,3.5,0.6,9.4c-0.1,3.7-0.5,1.9-0.5,3.4
	c-0.1,0-0.1,0.5,0,2.2l0,7.6l-0.1,0.7c0.1-0.3,0.2-0.6,0.2-0.6c0-0.1,0-0.1,0.1-0.2l0.1-0.3l0.1-0.7l0.2-1.3c0,0.4,0.1,0.9,0.1,1.3
	c0,0.4,0,0.8,0.1,1.2c-0.1,0.6-0.1,1.2-0.2,1.7c-0.1,0.5-0.1,0.9-0.1,1.1c0,0.4,0.2,0.1,0.6-1.3c-1,3-2.3,11.8-3.4,19.9l-0.5,4
	l3.2-2.5c1.4-1.1,2.8-2.1,4-3.1c-0.2,0.6-0.3,1.1-0.4,1.5l-0.3,2.5l-0.2,1.3c-0.1,0.4-0.2,0.9-0.2,1.3c-0.2,1.1-0.4,2.3-0.6,3.4
	c-0.1,0.6-0.2,1.2-0.3,1.7l-0.2,0.9l-0.1,0.4l0,0.2l0.1,0.1c1.4-0.2,2.9-0.4,4.4-0.5c0.8-0.1,1.5-0.1,2.3-0.2c0.6,0,1.2-0.1,1.8-0.1
	c-1.6,0-2.6-0.7,3-0.8c-1,0.7,1.6,0.8,4.9,0.9c3.4,0.2,7.6,0.4,9.9,1c-4.1-0.8,16,0.3,9.6-0.8c4.7,0.3,0.3,0.5,3.9,1
	c11.2-0.2,24.7,1.1,38.5,1.4c0.2-0.2-2.1-0.5,0.9-0.7l7.3,1.1c2.7,0,2.5-1,7.5-0.2c-0.7-0.2-1.8-0.4,0.1-0.4
	c1.7,0.2,3.4,0.1,5.1,0.1c1.7,0,3.4,0,5.1-0.1c3.4-0.1,6.9-0.1,10.3-0.3c6.9-0.2,13.8-0.5,20.8-0.7c13.9-0.5,27.9-0.9,41.6-0.5
	c-3.7-0.2-1.2-0.4,1.6-0.4c-1.8-0.1,0-0.5-0.3-0.7c1.9,0.1,3.8,0.3,5.7,0.5l3,0.3c1.4,0.2,2.8,0.3,4.4,0.6c0.4-0.1,1.2,0,2.3,0
	C204.6,441,204,437.5,203.4,434.3z M202.5,177.9l0-0.2C202.6,174.4,202.5,175.6,202.5,177.9z M9.4,400.5l0.1-1.4
	C9.7,402.2,9.5,401.3,9.4,400.5z M200,98.6c0.2,1.6,0.4,3.5,0.5,5.1c-0.1-0.2-0.3,0.5-0.5,1V98.6z M200.3,76.7
	c-0.1,0.4-0.2,0.7-0.2,0.8V61.9c0.6,0,1.2,0.4,1.4,1.3C201.4,64,200.7,74.3,200.3,76.7z M201.8,177.6c-0.6,4.6-1.1,0.2-1.5,1.2
	c-0.2-6.1,0.4-9.3,0.3-13.4l-0.3,5.1c-0.2-1.9-0.3-6-0.2-8.2c-0.1,0.5-0.1,1.2-0.1,2v-28.8c0.5,2.8,1,7.8,1.3,14
	c0.2,7.5-0.6,3.2-0.4,4.5C200.7,168,202.4,165.9,201.8,177.6z M194.8,18.4c0.8,0.4,1.5,1,2,1.9c0.5,0.8,0.8,1.8,0.9,2.9
	c0,0.1,0,0.3,0,0.4c0,0.1,0.1,0.2,0.1,0.4c0.1,0.2,0.3,0.7,0.5,1.1c0.2,0.4,0.4,0.9,0.6,1.3l0.2,1.7l2.3,5.4l0.1,1.3
	c0-0.1-0.1-0.2-0.1-0.4c0-0.2-0.1-0.5-0.1-0.9c-0.2-0.3-0.4-0.7-0.6-1c-0.2-0.3-0.3-0.6-0.5-0.9c-0.4-0.6-0.8-1.4-1.2-2.1
	c-0.5-0.8-1-1.7-1.5-2.6l-1.1-3c0,0,0.9-4.4-3.8-6C193.4,17.9,194.1,18.1,194.8,18.4z M132,12.5c-0.5,0.2-0.3,0.5,0,0.9l-5.1-0.4
	L132,12.5z M21.3,13.9c0.4-0.3,0.7-0.7,1-1.1c0.3-0.5,0.6-1.2,0.8-1.8l0.2-0.1l0.7,0l1,0c1.2,0.1,0.2,0.3-1.1,0.6
	c0.6-0.1,1.1-0.1,1.6-0.2c1.3,0.1,1.7,0.2,1.7,0.4c-1.3,0-2.5,0-3.4,0c-0.4,1.2-1.1,2.1-2,2.8c-1.2,0.7-2.3,0.9-3.1,1
	C19.6,15,20.5,14.5,21.3,13.9z"/>
</svg>
