<?xml version="1.0" encoding="utf-8"?>
<!-- Generator: Adobe Illustrator 19.0.0, SVG Export Plug-In . SVG Version: 6.00 Build 0)  -->
<svg version="1.1" id="Camada_1" xmlns="http://www.w3.org/2000/svg" xmlns:xlink="http://www.w3.org/1999/xlink" x="0px" y="0px"
	 viewBox="0 0 323.5 60.5" style="enable-background:new 0 0 323.5 60.5;" xml:space="preserve">
<style type="text/css">
	.st0{fill:#943831;stroke:#8E3830;stroke-width:2;stroke-miterlimit:10;}
</style>
<path class="st0" d="M320.7,17.1c-7,0-23.1,0.3-43,0.1l-1.8-4.3l-2.3,4.2c-16.4-0.2-35.1-0.7-53.2-1.8l-1.8-4.2l-2.2,3.9
	c-19.4-1.3-38-3.3-52.5-6.5l-2.1-3.8l-1.7,4c-14.7,3.1-33.7,5-53.3,6.3l-2.2-3.9l-1.8,4.1c-18.3,1.1-37,1.6-53.3,1.8l-2.3-4.2
	l-1.8,4.2c-19.2,0.2-34.7,0-41.5,0v27.8c6.8,0,22.3,0.3,41.5,0.9l1.8,4.1l2.2-4c16.4,0.6,35.2,1.3,53.6,2.2l1.6,3.6l1.9-3.4
	c19.3,0.9,38.1,2,53.1,3.2l2.2,5.1l2.8-5c14.7-1.2,33.1-2.3,52.1-3.2l1.9,3.4l1.5-3.5c18.4-0.9,37.2-1.6,53.7-2.2l2.2,3.9l1.8-4.1
	c20-0.7,36.1-1,43.1-1"/>
</svg>
