<?xml version="1.0" encoding="utf-8"?>
<!-- Generator: Adobe Illustrator 19.0.0, SVG Export Plug-In . SVG Version: 6.00 Build 0)  -->
<svg version="1.1" id="Camada_1" xmlns="http://www.w3.org/2000/svg" xmlns:xlink="http://www.w3.org/1999/xlink" x="0px" y="0px"
	 viewBox="0 0 530 219" style="enable-background:new 0 0 530 219;" xml:space="preserve">
<style type="text/css">
	.st0{fill:#943831;stroke:#8E3830;stroke-width:2;stroke-miterlimit:10;}
</style>
<path class="st0" d="M524.5,206.8l2.8,7.2c0,0-4.9-0.3-13.4-0.3c-8.5,0-419.7-0.6-419.7-0.6s-68.7,0.7-77.2,0.6
	c-8.5,0-13.4,0.3-13.4,0.3l2.8-7.2V16.6L3.5,9.4c0,0,4.9,0.3,13.4,0.3C25.4,9.7,53,8.6,53,8.6l1.3-1.9l1.4,1.9l36.8-1l380.5,1
	l3.4-1.9l1.3,1.9c0,0,27.6,1.1,36.1,1.1c8.5,0,13.4-0.3,13.4-0.3l-2.8,7.2"/>
</svg>
