<?xml version="1.0" encoding="utf-8"?>
<svg version="1.1" id="Camada_4" xmlns="http://www.w3.org/2000/svg" xmlns:xlink="http://www.w3.org/1999/xlink" x="0px" y="0px"
	 viewBox="-393 253.1 171.2 55.9" style="enable-background:new -393 253.1 171.2 55.9;" xml:space="preserve" class="points_box" aria-hidden="true">
<style type="text/css">
	.st0{fill:#00A1C6;stroke:#000000;stroke-miterlimit:10;}
</style>
<g>
	<path class="st0" d="M-226.2,278.7v-13.3v-4.5c-1.3,1.7-5.6,2.4-5.6,2.4h-27.7h-2.9h-5.4l-1.4-5l1.6-2.6l0.2-0.4l-0.2-0.1
		c0,0-0.1,0.1-0.3,0.1c-0.1,0.1-0.3,0.1-0.3,0.1c-3.2,1.2-15.7-1.4-15.7-1.4l-18.1-0.1v0l-0.7,0l-0.6,0v0l-19.5,0.1
		c0,0-12.5,2.6-15.7,1.4c0,0-0.2,0-0.3-0.1c-0.1-0.1-0.3-0.1-0.3-0.1l-0.2,0.1l0.2,0.4l1.7,2.6l-1.1,4.8l-3.7-0.1v-3.8l-18.6-2.4
		l-3.9-2.7l-3.9,2.7l-18.6,2.4v18.7l-5,3.3l4.8,3.4l0.1,18.7l18.6,2.2l3.9,2.8l3.9-2.8l18.6-2.2l0-3.6l18.5,0.1c0,0,8,2.6,9.3,6.4
		h2.3h8.6h1.3h9.8l0.2-0.1c5.6-6.5,8.6-6.3,8.6-6.3h20.9h0.7h2.2v0c7.2,0,25.4,0,27.4,0c2.5,0,5.9,2.4,5.9,2.4l0-18.4l3.5-2.6
		L-226.2,278.7z"/>
	<polygon class="st0" points="-342.3,277.9 -342.3,259.2 -360.9,256.8 -364.8,254.1 -368.6,256.8 -387.2,259.2 -387.2,277.9 
		-392.1,281.2 -387.4,284.5 -387.2,303.2 -368.6,305.3 -364.8,308.2 -360.9,305.4 -342.3,303.2 -342.1,284.6 -337.4,281.2 	"/>
</g>
</svg>
