<?xml version="1.0" encoding="utf-8"?>
<!-- Generator: Adobe Illustrator 19.0.0, SVG Export Plug-In . SVG Version: 6.00 Build 0)  -->
<svg version="1.1" id="Camada_1" xmlns="http://www.w3.org/2000/svg" xmlns:xlink="http://www.w3.org/1999/xlink" x="0px" y="0px"
	 viewBox="0 0 129 97.5" style="enable-background:new 0 0 129 97.5;" xml:space="preserve">
<style type="text/css">
	.st0{fill:#943831;stroke:#8E3830;stroke-width:2;stroke-miterlimit:10;}
</style>
<path class="st0" d="M122.4,81.3l1.8,11c0,0-3.2-0.4-8.8-0.4c-5.6,0-49.9,1.6-49.9,1.6s-45.8-1.6-51.4-1.6c-5.6,0-8.8,0.4-8.8,0.4
	L7.2,80V31.7L5.4,7.4c0,0,3.2,0.4,8.8,0.4c5.6,0,23.6-1.4,23.6-1.4l0.8-1.5l0.9,1.5l25.1-1.6L90,6.4L91,4.9l0.8,1.5
	c0,0,18,1.4,23.6,1.4c5.6,0,8.8-0.4,8.8-0.4l-1.8,24.4"/>
</svg>
