<?xml version="1.0" encoding="utf-8"?>
<!-- Generator: Adobe Illustrator 19.0.0, SVG Export Plug-In . SVG Version: 6.00 Build 0)  -->
<svg version="1.1" id="Camada_1" xmlns="http://www.w3.org/2000/svg" xmlns:xlink="http://www.w3.org/1999/xlink" x="0px" y="0px"
	 viewBox="-420 256.1 118.6 49.9" style="enable-background:new -420 256.1 118.6 49.9;" xml:space="preserve">
<style type="text/css">
	.st0{display:none;fill:none;stroke:#000000;stroke-miterlimit:10;}
</style>
<polygon id="XMLID_133_" class="st0" points="-750.6,515.3 -733.3,513.1 -729.1,510.3 -725.3,512.8 -707.7,515.2 -707.7,533.3 
	-703.4,536.3 -707.7,539.3 -707.7,557.3 -725.2,559.6 -729.3,562.4 -733.2,559.7 -750.7,557.6 -750.7,539.3 -755.5,536.4 
	-750.8,533.1 "/>
<g id="XMLID_132_">
	<path d="M-368.8,306h-21.3l-0.1-0.3c-0.1-0.2-2.2-4.8-8.7-5.7h-21v-36.3l6.4,0.3l1-3.5l-2-2.4l1.2-1.2l0.3,0.1c0,0,4.9,2,14.5-0.9
		h0.1h38c9.6,2.9,14.4,0.9,14.5,0.9l0.2-0.1l1.3,0.8l-2.1,2.6l1.4,4l33.3-0.3c0.1,0,4.1,0.1,5.8-2.3l0.9-1.3l-0.3,18.2l4,2.6
		l-4.2,3.1l0.2,18.7l-0.9-0.9c0,0-2.6-2.7-5.4-2.3h-35.4l-0.5,0.1h-12c-2.8-0.8-7.4,4-8.9,5.8L-368.8,306L-368.8,306L-368.8,306z
		 M-389.5,305h20.5c1-1.1,6.1-6.9,9.7-6h11.3l0.5-0.1h35.8c2.2-0.3,4.2,1,5.3,1.9l-0.2-16.8l3.4-2.5l-3.2-2.2l0.3-15.9
		c-2.2,1.8-5.5,1.7-5.7,1.7l-34,0.3l-1.8-5.2l1.7-2.1c-1.4,0.4-6.2,1.5-14.7-1h-37.8c-8.6,2.6-13.5,1.4-14.7,1l-0.1,0.1l1.8,2.2
		l-1.4,4.7l-6.2-0.3v34.3h20.1C-392.6,299.9-390.1,303.9-389.5,305z"/>
</g>
</svg>
