<?xml version="1.0" encoding="utf-8"?>
<svg version="1.1" id="Camada_3" xmlns="http://www.w3.org/2000/svg" xmlns:xlink="http://www.w3.org/1999/xlink" x="0px" y="0px"
	 viewBox="-438.4 251.9 195.2 62.5" style="enable-background:new -438.4 251.9 195.2 62.5;" xml:space="preserve" aria-hidden="true" class="img-defense">
<style type="text/css">
	.st0{fill:#00A1C6;stroke:#000000;stroke-width:1.5;stroke-miterlimit:10;}
	.st1{fill:#00A1C6;stroke:#000000;stroke-miterlimit:10;}
</style>
<g>
	<path class="st0" d="M-249.6,272.5l0.1-12.4c0-5.6,3.3-7.4,3.3-7.4h-81.5v0h-51.5c0,0,3.3,1.8,3.3,7.4l0.1,11.6
		c-1.8-2.1-4.2-3.5-7-3.8l-1.8-4.1l-1.5,4.1c-2.2,0.4-4.2,1.5-5.8,3.1v-6.3l2.1-3.5h-5.8c-0.8-0.5-1.2-2.1-1.2-2.1l1.8-4.8l-3.1,0.7
		c-2.4-0.6-2.8-2.3-2.8-2.3h-12h-1.5h-10.1c0,0-0.4,1.7-2.8,2.3l-3.1-0.7l1.8,4.8c0,0-0.4,1.6-1.2,2.1h-5.8l2.1,3.5v9.4l-4,2.7
		l4,2.9v19.7l4.1,3.5l0.2,2.9l16.2,7.8l16.4-7.8l0.2-2.9l4.1-3.5v-10.3c1.6,1.6,3.7,2.7,6,3.1l1.4,4.2l1.9-4.1
		c2.7-0.4,5.1-1.8,6.8-3.8l0,6.6c0,0-0.3,16.4-3.1,18.4h27.7h24.1l16.7-2.9l14.5,2.9h21.8h27.7c-2.9-2-3.1-18.4-3.1-18.4l-0.1-18.2
		l3.2-2.2L-249.6,272.5z"/>
	<path id="XMLID_2_" class="st1" d="M-372.7,280.1c0-6.3-4.4-11.5-10-12.2l-1.8-4.1l-1.5,4.1c-5.4,1-9.5,6-9.5,12.2
		c0,6.1,4.1,11.1,9.6,12.1l1.4,4.2l1.9-4.1C-377,291.4-372.7,286.3-372.7,280.1z"/>
</g>
</svg>
