<?xml version="1.0" encoding="utf-8"?>
<svg version="1.1" id="Camada_1" xmlns="http://www.w3.org/2000/svg" xmlns:xlink="http://www.w3.org/1999/xlink" x="0px" y="0px"
	 viewBox="-410 235.8 138.3 86.3" style="enable-background:new -410 235.8 138.3 86.3;" xml:space="preserve" aria-hidden="true" class="img_proficiency">
<style type="text/css">
	.st0{fill:#00A1C6;stroke:#000000;stroke-width:1.5;stroke-miterlimit:10;}
</style>
<path id="XMLID_133_" class="st0" d="M-273.1,279.3c-1.8-1-3.3-2.5-3.3-2.5v-28.5l-3.2-2.3l1.1-7.8c-1.9,1.1-8.5,2-9.4,2.2v-0.1
	l-11.6-0.1l-2-3l-2,3l-38.3-0.3l-3.9,0.1l-2.7-1.7l-2.4,2l-20.3,0.5h-1h-11.2l-2-2.4l-1.8,2.4h-6.5c0,0-7.5-1.3-9.5-2.4l1,7.7
	l-3.3,2.2v28.5c0,0-1.4,1.5-3.2,2.5c0,0,3.7,2.8,3.7,3.8s-0.1,28.3-0.1,28.3l2.8,2l-1,6.7l5.6-1.7l15.5,0.2l4.4,2.4l0.1-2.3l5.1,0.1
	h30.7h21.7l1-1.5l1,1.5h34v-0.1l5.4,1.5l-1-6.7l2.9-2c0,0-0.2-27.3-0.2-28.3S-273.1,279.3-273.1,279.3z"/>
</svg>
