<?xml version="1.0" encoding="utf-8"?>
<!-- Generator: Adobe Illustrator 19.0.0, SVG Export Plug-In . SVG Version: 6.00 Build 0)  -->
<svg version="1.1" id="Camada_1" xmlns="http://www.w3.org/2000/svg" xmlns:xlink="http://www.w3.org/1999/xlink" x="0px" y="0px"
	 viewBox="-73.3 212.8 337.7 148.5" style="enable-background:new -73.3 212.8 337.7 148.5;" xml:space="preserve">
<style type="text/css">
	.st0{display:none;fill:none;stroke:#000000;stroke-miterlimit:10;}
	.st1{fill:none;stroke:#000000;stroke-miterlimit:10;}
</style>
<path id="XMLID_132_" class="st0" d="M163.8,286.9l-3.6-2.4l0.3-16.9c-1.9,2.6-6.2,2.5-6.2,2.5l-33.7,0.3l-1.6-4.6l1.9-2.4l-0.6-0.4
	c0,0-4.9,2.1-14.8-0.9H89.7h-6.5H67.4c-9.9,3-14.8,0.9-14.8,0.9l-0.6,0.6l1.9,2.3l-1.2,4.1l-6.3-0.3V305H67c6.9,1,9.1,6,9.1,6h10
	h0.5h10.5c0,0,5.7-7,9.4-6h11.9l0,0h35.8c3.1-1,5.8,2.4,5.8,2.4l-0.2-17.8L163.8,286.9z"/>
<polygon id="XMLID_224_" class="st1" points="260.5,274 260.5,273.5 260.5,227.6 257.4,225.5 258.8,218.8 252,221 225.3,221 
	197.5,221 195,216 192.8,221 158.6,221 155,217.2 151.4,221 109.4,221 108.3,222.5 107.2,221 69.9,221 67.8,217 66.2,221 1.4,221 
	-1.2,214.3 -4.4,221 -5.5,221 -37,221 -47,221 -48.8,216.8 -51.1,221 -60,221 -66.7,218.8 -65.4,225.5 -68.5,227.6 -68.5,273.5 
	-68.5,273.9 -71.9,276.8 -68.5,279.8 -68.5,348.5 -65.6,350 -66.7,357 -61.6,355.1 -33.3,355 5.7,355 8.2,360.5 11.2,355 192.8,355 
	194.8,359.5 197.3,355 225.3,355 253.6,355.1 258.8,356.9 257.6,350 260.5,348.5 260.5,279.1 263.6,276.6 "/>
</svg>
