<?xml version="1.0" encoding="utf-8"?>
<!-- Generator: Adobe Illustrator 19.0.0, SVG Export Plug-In . SVG Version: 6.00 Build 0)  -->
<svg version="1.1" id="Camada_1" xmlns="http://www.w3.org/2000/svg" xmlns:xlink="http://www.w3.org/1999/xlink" x="0px" y="0px"
	 viewBox="-190.7 179.2 545.3 215.3" style="enable-background:new -190.7 179.2 545.3 215.3;" xml:space="preserve">
<style type="text/css">
	.st0{display:none;fill:none;stroke:#000000;stroke-miterlimit:10;}
	.st1{fill:none;stroke:#000000;stroke-miterlimit:10;}
</style>
<path id="XMLID_132_" class="st0" d="M163.8,286.9l-3.6-2.4l0.3-16.9c-1.9,2.6-6.2,2.5-6.2,2.5l-33.7,0.3l-1.6-4.6l1.9-2.4l-0.6-0.4
	c0,0-4.9,2.1-14.8-0.9H89.7h-6.5H67.4c-9.9,3-14.8,0.9-14.8,0.9l-0.6,0.6l1.9,2.3l-1.2,4.1l-6.3-0.3V305H67c6.9,1,9.1,6,9.1,6h10
	h0.5h10.5c0,0,5.7-7,9.4-6h11.9l0,0h35.8c3.1-1,5.8,2.4,5.8,2.4l-0.2-17.8L163.8,286.9z"/>
<path id="XMLID_159_" class="st1" d="M349.5,318.5v-43v-7.4v-0.8V199l-3.6-2.8l1.7-6.6l-8.6,1.9l-78.1-0.2l-1.9,2.4l-2-2.2
	l-110.6-0.3l-2.4-5.5c0,0-1.8,2.8-2.7,5.4h-21.6l-1.9-1.5l5-6.9l-42-2l-42,1.8l4.5,6.9l-3.5,1.5h-71.1l-1.9-3.6l-1.6,3.6h-71.6
	l-1.6-3.3l-1.8,4l-66.8-0.3l-6.3-1.5l1,6.8l-3.4,2.3l0.6,68.6v0.6v8.6l-0.2,42.1l-4.1,3.1l4.2,3L-185,380l3.5,2.3l-1.5,7l6.1-1.3
	l35.6-0.5l1.5-4.2l1.4,4l11.4-0.3h63.3h8.9h295h7.2h39.3l2.9,5.3l2.5-5.3h0.9l46,0.1l8.3,2.6l-1-7.7l3.1-2v-54.9l3.8-3.2
	L349.5,318.5z"/>
</svg>
