<?xml version="1.0" encoding="utf-8"?>
<!-- Generator: Adobe Illustrator 19.0.0, SVG Export Plug-In . SVG Version: 6.00 Build 0)  -->
<svg version="1.1" id="Camada_1" xmlns="http://www.w3.org/2000/svg" xmlns:xlink="http://www.w3.org/1999/xlink" x="0px" y="0px"
	 viewBox="-323.3 235.7 137.8 90.8" style="enable-background:new -323.3 235.7 137.8 90.8;" xml:space="preserve">
<style type="text/css">
	.st0{display:none;fill:none;stroke:#000000;stroke-miterlimit:10;}
	.st1{fill:none;stroke:#000000;stroke-miterlimit:10;}
</style>
<path id="XMLID_132_" class="st0" d="M-173.5,281.1l-3.6-2.4l0.3-16.9c-1.9,2.6-6.2,2.5-6.2,2.5l-33.7,0.3l-1.6-4.6l1.9-2.4
	l-0.6-0.4c0,0-4.9,2.1-14.8-0.9h-15.8h-6.4h-15.7c-9.9,3-14.8,0.9-14.8,0.9l-0.6,0.6l1.9,2.3l-1.2,4.1l-6.3-0.3v35.3h20.6
	c6.9,1,9.1,6,9.1,6h10h0.5h10.5c0,0,5.7-7,9.4-6h11.9l0,0h35.8c3.1-1,5.8,2.4,5.8,2.4l-0.2-17.8L-173.5,281.1z"/>
<path id="XMLID_133_" class="st1" d="M-186.5,280.8c-1.8-1-3.3-2.5-3.3-2.5v-28.5l-3.2-2.3l1.1-7.8c-1.9,1.1-8.5,2-9.4,2.2v-0.1
	l-11.6-0.1l-1.8-4.4l-2.2,4.4l-38.3-0.3l-3.9,0.1l-2.7-1.7l-2.4,2l-20.3,0.5h-1h-11.2l-1.8-4l-2,4h-6.5c0,0-7.5-1.3-9.5-2.4l1,7.7
	l-3.3,2.2v28.5c0,0-1.4,1.5-3.2,2.5c0,0,3.7,2.8,3.7,3.8s-0.1,28.3-0.1,28.3l2.8,2l-1,6.7l5.6-1.7l15.5,0.2l2.4,5l2.1-4.9l5.1,0.1
	v0.5l0.1-0.3l30.6-0.2h21.7l1-1.5l1,1.5h34v-0.1l5.4,1.5l-1-6.7l2.9-2c0,0-0.2-27.3-0.2-28.3S-186.5,280.8-186.5,280.8z"/>
</svg>
