<?xml version="1.0" encoding="utf-8"?>
<svg version="1.1" id="Camada_4" xmlns="http://www.w3.org/2000/svg" xmlns:xlink="http://www.w3.org/1999/xlink" x="0px" y="0px" viewBox="-452 248.9 53.1 65.1" style="enable-background:new -452 248.9 53.1 65.1;" xml:space="preserve" aria-hidden="true" class="img_attribute">
<style type="text/css">
	.st0{fill:#00A1C6;stroke:#000000;stroke-width:1.5;stroke-miterlimit:10;}
	.st1{fill:none;stroke:#000000;stroke-miterlimit:10;}
</style>
<g>
	<path class="st0" d="M-403.8,282.1l3.9-2.8l-4-2.7v-13.3l2.2-3.7h-8.1c-1-0.9-1-2.2-1-2.2l1.6-5.8l-3.2,0.5c-2-0.2-2.8-2.2-2.8-2.2
		h-10h-10c0,0-0.9,1.9-2.8,2.2l-3.2-0.5l1.6,5.8c0,0,0,1.3-1,2.2h-8.1l2.2,3.7v13.3l-4,2.7l3.9,2.8l0,15.3l-1.1,5.1l6.2-2.5l2.8,0.4
		c0,0,0.9,8.9,11.7,9.3l1.8,3.2l1.8-3.2c10.9-0.4,11.7-9.3,11.7-9.3l2.8-0.4l6.2,2.5l-1.1-5.1L-403.8,282.1z"/>
	<path class="st1" d="M-412.3,300.4c0-5.1-5-9.3-11.5-9.9l-1.6-2.5l-1.4,2.5c-6.5,0.6-11.6,4.8-11.6,9.9c0,5,4.8,9.1,11.1,9.8
		l1.8,2.6l1.8-2.6C-417.2,309.6-412.3,305.5-412.3,300.4z"/>
</g>
</svg>
